HIERARCHY
ROOT SpineBase
{
  OFFSET 0.000000 0.000000 0.000000
  CHANNELS 6 Xposition Yposition Zposition Zrotation Xrotation Yrotation
  JOINT SpineMid
  {
    OFFSET 0.000000 27.757222 0.000000
    CHANNELS 3 Zrotation Xrotation Yrotation
    JOINT SpineShoulder
    {
      OFFSET -0.002588 20.638316 -0.678547
      CHANNELS 3 Zrotation Xrotation Yrotation
      JOINT Neck
      {
        OFFSET -0.013438 6.826614 -0.513045
        CHANNELS 3 Zrotation Xrotation Yrotation
        JOINT Head
        {
          OFFSET -3.085878 12.882123 -0.110207
          CHANNELS 3 Zrotation Xrotation Yrotation
          End Site
          {
            OFFSET 0 0 0
          }
        }
      }
      JOINT ShoulderLeft
      {
        OFFSET -13.751278 -4.519009 5.662161
        CHANNELS 3 Zrotation Xrotation Yrotation
        JOINT ElbowLeft
        {
          OFFSET -1.466826 -19.538710 2.980257
          CHANNELS 3 Zrotation Xrotation Yrotation
          JOINT WristLeft
          {
            OFFSET -2.982163 6.505654 -14.623139
            CHANNELS 3 Zrotation Xrotation Yrotation
            JOINT HandLeft
            {
              OFFSET 3.558691 4.850776 1.338400
              CHANNELS 3 Zrotation Xrotation Yrotation
              JOINT HandTipLeft
              {
                OFFSET 0.028664 2.643177 -0.969763
                CHANNELS 3 Zrotation Xrotation Yrotation
                End Site
                {
                  OFFSET 0 0 0
                }
              }
              JOINT ThumbLeft
              {
                OFFSET -0.311342 3.853234 0.429489
                CHANNELS 3 Zrotation Xrotation Yrotation
                End Site
                {
                  OFFSET 0 0 0
                }
              }
            }
          }
        }
      }
      JOINT ShoulderRight
      {
        OFFSET 11.725571 -3.871700 -10.856273
        CHANNELS 3 Zrotation Xrotation Yrotation
        JOINT ElbowRight
        {
          OFFSET 4.885275 -19.505437 -2.134066
          CHANNELS 3 Zrotation Xrotation Yrotation
          JOINT WristRight
          {
            OFFSET -0.154291 -19.854051 -3.964702
            CHANNELS 3 Zrotation Xrotation Yrotation
            JOINT HandRight
            {
              OFFSET -1.054627 -7.796486 -0.916224
              CHANNELS 3 Zrotation Xrotation Yrotation
              JOINT HandTipRight
              {
                OFFSET 0.200069 -6.282944 -1.295792
                CHANNELS 3 Zrotation Xrotation Yrotation
                End Site
                {
                  OFFSET 0 0 0
                }
              }
              JOINT ThumbRight
              {
                OFFSET -3.126786 1.753569 0.028318
                CHANNELS 3 Zrotation Xrotation Yrotation
                End Site
                {
                  OFFSET 0 0 0
                }
              }
            }
          }
        }
      }
    }
  }
  JOINT HipLeft
  {
    OFFSET -5.347387 0.057461 -0.061121
    CHANNELS 3 Zrotation Xrotation Yrotation
    JOINT KneeLeft
    {
      OFFSET 6.722114 -28.479983 5.762130
      CHANNELS 3 Zrotation Xrotation Yrotation
      JOINT AnkleLeft
      {
        OFFSET 6.419905 -32.599533 9.206799
        CHANNELS 3 Zrotation Xrotation Yrotation
        JOINT FootLeft
        {
          OFFSET -2.141321 -6.426044 -6.498637
          CHANNELS 3 Zrotation Xrotation Yrotation
          End Site
          {
            OFFSET 0 0 0
          }
        }
      }
    }
  }
  JOINT HipRight
  {
    OFFSET 4.972273 1.254804 -6.263555
    CHANNELS 3 Zrotation Xrotation Yrotation
    JOINT KneeRight
    {
      OFFSET 8.855062 -25.961664 1.163743
      CHANNELS 3 Zrotation Xrotation Yrotation
      JOINT AnkleRight
      {
        OFFSET 6.441351 -36.397238 10.703933
        CHANNELS 3 Zrotation Xrotation Yrotation
        JOINT FootRight
        {
          OFFSET -3.258083 -4.272453 -7.411219
          CHANNELS 3 Zrotation Xrotation Yrotation
          End Site
          {
            OFFSET 0 0 0
          }
        }
      }
    }
  }
}
MOTION
Frames: 7
Frame Time: 0.033333
22.014383 69.362937 351.137539 2.017779 1.785460 31.061583 -0.517578 -0.043289 -31.041729 -0.454755 -0.193187 0.031772 2.674779 -1.527565 -0.031593 0.000000 0.000000 0.000000 -32.003845 23.116831 -0.689956 14.768757 21.346792 -0.076713 83.917190 -31.694252 71.912517 -51.898449 29.775827 1.910991 0.000000 0.000000 0.000000 0.000000 0.000000 0.000000 -9.281001 25.938957 9.434195 -132.865286 17.385310 25.237167 -7.721200 -4.051842 -42.595697 -21.545269 -20.235063 -109.357181 0.000000 0.000000 0.000000 0.000000 0.000000 0.000000 -7.559030 0.723524 -32.435729 6.449584 1.444303 1.655133 14.080627 -15.314731 -11.244834 0.000000 0.000000 0.000000 -5.952008 -0.645803 -31.894232 2.721485 1.877713 0.712660 -1.833685 6.358024 -1.416688 0.000000 0.000000 0.000000
21.963543 69.222241 351.188619 1.804387 1.641644 31.253835 -0.632335 -0.037990 -31.239311 -0.312647 -0.171022 0.030780 3.070674 -0.991477 0.052435 0.000000 0.000000 0.000000 -26.582381 17.580881 -1.717759 12.519656 20.622951 -0.938064 88.447936 -28.032773 73.428029 -55.461831 25.119121 3.488566 0.000000 0.000000 0.000000 0.000000 0.000000 0.000000 -6.208849 20.922757 6.920913 -129.158527 16.541434 32.141603 -2.789635 1.701278 -25.448713 -33.954136 -19.038944 -101.021986 0.000000 0.000000 0.000000 0.000000 0.000000 0.000000 -7.124000 0.469490 -32.605633 6.415933 1.511622 1.675889 6.864242 -3.693821 -8.303370 0.000000 0.000000 0.000000 -5.626265 -0.863277 -32.135603 2.527425 2.053480 0.763347 -2.238185 11.115564 -3.717911 0.000000 0.000000 0.000000
21.951324 69.092798 351.216377 1.709254 1.531440 31.542884 -0.665725 -0.102598 -31.527237 -0.095976 -0.114736 0.045347 2.744950 -0.512594 0.100713 0.000000 0.000000 0.000000 -22.134598 13.354507 -2.127324 10.146232 19.707644 -1.434717 96.541663 -25.179350 83.977435 -58.501374 31.424655 4.376320 0.000000 0.000000 0.000000 0.000000 0.000000 0.000000 -4.491488 17.107933 5.272534 -124.382446 16.580184 35.751519 -0.971864 7.210849 -14.512808 -32.523665 -21.149307 -66.228907 0.000000 0.000000 0.000000 0.000000 0.000000 0.000000 -6.806157 0.262804 -32.869546 6.373341 1.508173 1.681238 0.135968 9.765941 -5.689943 0.000000 0.000000 0.000000 -5.964750 -1.387613 -32.704481 2.594626 2.822377 1.008550 0.625030 3.123487 -3.338756 0.000000 0.000000 0.000000
21.976764 68.987661 351.218761 1.723108 1.392934 31.897150 -0.650657 -0.187919 -31.875227 0.134009 -0.064445 0.067151 1.991741 0.140093 0.162312 0.000000 0.000000 0.000000 -18.279807 10.652493 -2.123129 7.575836 18.825784 -1.414787 103.213753 -23.796752 98.764055 -62.109856 43.262103 4.594859 0.000000 0.000000 0.000000 0.000000 0.000000 0.000000 -2.871215 13.521285 3.778209 -119.997069 18.707405 41.309512 -0.820846 4.013267 -17.995575 -23.958979 -20.533673 -31.352070 0.000000 0.000000 0.000000 0.000000 0.000000 0.000000 -6.599227 0.179136 -33.196277 6.282893 1.573052 1.684688 -3.069991 12.995303 -3.440418 0.000000 0.000000 0.000000 -7.647051 -2.555368 -33.871568 3.489237 5.926147 1.903098 1.727918 -2.333883 -2.715174 0.000000 0.000000 0.000000
21.995364 68.921059 351.199126 1.787544 1.245707 32.306199 -0.508458 -0.328882 -32.270759 0.344179 -0.016996 0.094372 0.688687 0.772487 0.212533 0.000000 0.000000 0.000000 -14.897971 9.275562 -1.924027 5.111404 17.157244 -1.052421 115.367771 -10.741930 124.716384 -80.308378 62.258252 16.757828 0.000000 0.000000 0.000000 0.000000 0.000000 0.000000 -1.401816 10.497596 2.531781 -116.590568 19.134904 42.922695 2.187144 2.821129 -15.975396 -12.938856 -17.808222 -8.789330 0.000000 0.000000 0.000000 0.000000 0.000000 0.000000 -6.415487 0.178852 -33.564614 6.038874 1.738150 1.669270 -6.997883 15.456047 -0.135752 0.000000 0.000000 0.000000 -8.299603 -2.647703 -34.518352 4.427011 7.116118 2.301814 -0.866730 -1.521512 -0.534316 0.000000 0.000000 0.000000
22.016929 68.895941 351.172021 1.913871 1.068631 32.728806 -0.321629 -0.484867 -32.675656 0.509597 0.009629 0.121786 -1.054664 1.457650 0.273470 0.000000 0.000000 0.000000 -11.883887 9.307325 -1.658836 2.523899 15.653820 -0.531498 116.857271 -8.177292 140.730795 -78.143026 71.679591 13.654491 0.000000 0.000000 0.000000 0.000000 0.000000 0.000000 -0.045424 7.911237 1.484220 -112.896670 19.468757 43.201400 2.596757 1.349312 -15.746405 -8.214110 -17.074522 -3.506613 0.000000 0.000000 0.000000 0.000000 0.000000 0.000000 -6.226029 0.341131 -33.916497 5.598663 1.881356 1.603183 -10.220497 17.123075 2.832573 0.000000 0.000000 0.000000 -8.599582 -2.190118 -34.918303 4.486842 6.967626 2.225497 2.229005 -6.880630 -1.063657 0.000000 0.000000 0.000000
22.054283 68.903776 351.162314 2.091965 0.898362 33.175739 -0.158228 -0.625673 -33.104483 0.600704 0.013267 0.144238 -2.681343 2.144620 0.355614 0.000000 0.000000 0.000000 -9.525701 10.841419 -1.481671 0.108583 14.583014 0.067517 116.742070 -11.910673 161.018944 -23.506165 83.507851 -40.936096 0.000000 0.000000 0.000000 0.000000 0.000000 0.000000 1.280444 5.969498 0.670863 -109.960534 19.645689 42.868313 3.906981 -3.710476 -17.702668 -15.942004 -19.497726 -10.669111 0.000000 0.000000 0.000000 0.000000 0.000000 0.000000 -6.094917 0.679684 -34.277869 5.176194 2.038541 1.539576 -10.452517 19.264647 2.732216 0.000000 0.000000 0.000000 -8.567829 -1.215953 -35.090800 5.241332 5.310424 1.937920 3.051301 -8.092700 -1.378279 0.000000 0.000000 0.000000
